<svg xmlns="http://www.w3.org/2000/svg" width="40" height="40" viewBox="0 0 40 40" fill="none">
  <rect width="40" height="40" rx="8" fill="#F1F3F4"/>
  <path d="M13.333 20C13.333 16.3181 16.318 13.3333 20 13.3333C21.941 13.3333 23.682 14.2143 24.864 15.6191L23.333 17.1505C22.541 16.1657 21.342 15.5238 20 15.5238C17.528 15.5238 15.524 17.5286 15.524 20C15.524 22.4714 17.528 24.4762 20 24.4762C22.065 24.4762 23.798 23.0495 24.324 21.143H20V19.048H26.578C26.65 19.3648 26.686 19.6934 26.686 20.0333C26.686 24.0219 23.786 26.6667 20 26.6667C16.318 26.6667 13.333 23.6819 13.333 20Z" fill="#4285F4"/>
</svg> 