<svg xmlns="http://www.w3.org/2000/svg" width="40" height="40" viewBox="0 0 40 40" fill="none">
  <rect width="40" height="40" rx="8" fill="#002E6E"/>
  <path d="M13.333 17.5L13.333 22.5M13.333 22.5L13.333 24.1667C13.333 25.5475 14.452 26.6667 15.833 26.6667L24.167 26.6667C25.547 26.6667 26.667 25.5475 26.667 24.1667L26.667 15.8333C26.667 14.4525 25.547 13.3333 24.167 13.3333L15.833 13.3333C14.452 13.3333 13.333 14.4525 13.333 15.8333L13.333 17.5M13.333 22.5L13.333 17.5" stroke="white" stroke-width="2" stroke-linecap="round" stroke-linejoin="round"/>
  <path d="M17.5 20.8333C17.5 21.2936 17.7242 21.6667 18 21.6667C18.2758 21.6667 18.5 21.2936 18.5 20.8333C18.5 20.3731 18.2758 20 18 20C17.7242 20 17.5 20.3731 17.5 20.8333Z" stroke="white" stroke-width="1.5"/>
  <path d="M21.5 20.8333C21.5 21.2936 21.7242 21.6667 22 21.6667C22.2758 21.6667 22.5 21.2936 22.5 20.8333C22.5 20.3731 22.2758 20 22 20C21.7242 20 21.5 20.3731 21.5 20.8333Z" stroke="white" stroke-width="1.5"/>
</svg> 